<svg id="Sad_Cat" data-name="Sad Cat" xmlns="http://www.w3.org/2000/svg" viewBox="0 0 158.14 95"><defs><style>.cls-1{fill:#282828;}</style></defs><title>Sad Cat</title><path class="cls-1" d="M198.11,148.86l-23.45-1.64a30.59,30.59,0,0,0,2.17-4.68L198.11,141a4.7,4.7,0,0,0,4.36-5l0-.43a4.7,4.7,0,0,0-5-4.36l-18.92,1.33a29.6,29.6,0,0,0-6.62-17.66l1.88-33.52a4.7,4.7,0,0,0-7.27-4.19L137.68,96.13a79.2,79.2,0,0,0-28.55,0L80.33,77.18a4.7,4.7,0,0,0-7.28,4.19l1.89,33.52a29.54,29.54,0,0,0-6.62,17.66l-18.92-1.33a4.71,4.71,0,0,0-5,4.36l0,0.43a4.7,4.7,0,0,0,4.36,5L70,142.53a30.21,30.21,0,0,0,2.18,4.68l-23.45,1.64a4.7,4.7,0,0,0-4.36,5l0,0.43a4.71,4.71,0,0,0,5,4.36l30.42-2.13c10.08,9,25.86,14.87,43.59,14.87s33.52-5.83,43.59-14.87l30.42,2.13a4.7,4.7,0,0,0,5-4.36l0-.43A4.7,4.7,0,0,0,198.11,148.86Zm-99-14.26a7.79,7.79,0,1,1,7.79-7.79A7.79,7.79,0,0,1,99.12,134.6Zm7.27,21.53a17,17,0,0,1,34,0h-34Zm41.3-21.53a7.79,7.79,0,1,1,7.79-7.79A7.79,7.79,0,0,1,147.69,134.6Z" transform="translate(-44.33 -76.4)"/></svg>